<svg width="20.000000" height="20.000000" id="check" viewBox="0 0 20 20" fill="none" xmlns="http://www.w3.org/2000/svg" xmlns:xlink="http://www.w3.org/1999/xlink">
	<desc>
			Created with Pixso.
	</desc>
	<defs>
		<clipPath id="clip15_474">
			<rect id="24 / Main / Selected" width="20.000000" height="20.000000" fill="white" fill-opacity="0"/>
		</clipPath>
	</defs>
	<g clip-path="url(#clip15_474)">
		<path id="Vector" d="M10 18.3335C6.07153 18.3335 4.10742 18.3335 2.88696 17.113C1.66663 15.8926 1.66663 13.9285 1.66663 10C1.66663 6.07178 1.66663 4.10742 2.88696 2.88721C4.10742 1.66675 6.07153 1.66675 10 1.66675C13.9283 1.66675 15.8926 1.66675 17.1129 2.88721C18.3333 4.10742 18.3333 6.07178 18.3333 10C18.3333 13.9285 18.3333 15.8926 17.1129 17.113C15.8926 18.3335 13.9283 18.3335 10 18.3335Z" fill="#7B58E8" fill-opacity="1.000000" fill-rule="nonzero"/>
		<path id="Vector" d="M13.3586 8.35864C13.6028 8.1145 13.6028 7.71899 13.3586 7.47485C13.1146 7.23071 12.7189 7.23071 12.4747 7.47485L8.75 11.1995L7.52527 9.97485C7.28125 9.73071 6.8855 9.73071 6.64148 9.97485C6.39734 10.219 6.39734 10.6145 6.64148 10.8586L8.30811 12.5254C8.55212 12.7695 8.94788 12.7695 9.19202 12.5254L13.3586 8.35864Z" fill="#FFFFFF" fill-opacity="1.000000" fill-rule="evenodd"/>
	</g>
</svg>
