<svg width="60.000000" height="60.000000" id="faq-2" viewBox="0 0 60 60" fill="none" xmlns="http://www.w3.org/2000/svg" xmlns:xlink="http://www.w3.org/1999/xlink">
	<desc>
			Created with Pixso.
	</desc>
	<defs>
		<clipPath id="clip48_1443">
			<rect id="32 / Point / Amout" width="32.000000" height="32.000000" transform="translate(14.000000 14.000000)" fill="white" fill-opacity="0"/>
		</clipPath>
	</defs>
	<rect id="icon" rx="30.000000" width="60.000000" height="60.000000" fill="#21242B" fill-opacity="1.000000"/>
	<g clip-path="url(#clip48_1443)">
		<path id="Subtract" d="M30.0005 43.3333C37.3643 43.3333 43.3335 37.3638 43.3335 30C43.3335 22.6362 37.3643 16.6667 30.0005 16.6667C22.6367 16.6667 16.667 22.6362 16.667 30C16.667 37.3638 22.6367 43.3333 30.0005 43.3333ZM26.0005 31.6667C25.4482 31.6667 25.0005 32.1144 25.0005 32.6667C25.0005 33.2189 25.4482 33.6667 26.0005 33.6667L26.3335 33.6667L26.3335 36.6667C26.3335 37.2189 26.7812 37.6667 27.3335 37.6667C27.8857 37.6667 28.3335 37.2189 28.3335 36.6667L28.3335 33.6667L30.0005 33.6667C30.5527 33.6667 31.0005 33.2189 31.0005 32.6667C31.0005 32.1144 30.5527 31.6667 30.0005 31.6667L28.3335 31.6667L28.3335 31L32.0005 31C34.3936 31 36.3335 29.0599 36.3335 26.6667C36.3335 24.2734 34.3936 22.3333 32.0005 22.3333L28.8823 22.3333C28.6885 22.333 28.4868 22.3328 28.3018 22.3621C27.3037 22.5202 26.5205 23.3032 26.3623 24.3016C26.333 24.4863 26.3335 24.688 26.3335 24.882L26.3335 29L26.0005 29C25.4482 29 25.0005 29.4477 25.0005 30C25.0005 30.5523 25.4482 31 26.0005 31L26.3335 31L26.3335 31.6667L26.0005 31.6667ZM28.3335 29L32.0005 29C33.2891 29 34.3335 27.9553 34.3335 26.6667C34.3335 25.378 33.2891 24.3333 32.0005 24.3333L28.9336 24.3333C28.8042 24.3333 28.7275 24.3334 28.6694 24.335C28.6328 24.336 28.6167 24.3374 28.6128 24.3378C28.4717 24.361 28.3613 24.4715 28.3379 24.6124C28.3379 24.6162 28.3364 24.6322 28.3354 24.6691C28.334 24.7271 28.3335 24.804 28.3335 24.9333L28.3335 29Z" fill="#7B58E8" fill-opacity="1.000000" fill-rule="evenodd"/>
	</g>
</svg>
