<svg width="60.000000" height="60.000000" id="faq-4" viewBox="0 0 60 60" fill="none" xmlns="http://www.w3.org/2000/svg" xmlns:xlink="http://www.w3.org/1999/xlink">
	<desc>
			Created with Pixso.
	</desc>
	<defs>
		<clipPath id="clip48_1460">
			<rect id="32 / Point / Good" width="32.000000" height="32.000000" transform="translate(14.000000 14.000000)" fill="white" fill-opacity="0"/>
		</clipPath>
	</defs>
	<rect id="icon" rx="30.000000" width="60.000000" height="60.000000" fill="#21242B" fill-opacity="1.000000"/>
	<g clip-path="url(#clip48_1460)">
		<path id="Vector" d="M18.0542 17.0565C17.5332 16.8734 16.9624 17.1472 16.7788 17.6682C16.5957 18.1893 16.8696 18.7601 17.3906 18.9433L17.7393 19.0657C18.6294 19.3787 19.2144 19.5861 19.6445 19.7973C20.0488 19.9957 20.2271 20.1562 20.3447 20.3281C20.4648 20.5042 20.5581 20.7461 20.6104 21.2306C20.665 21.7375 20.6665 22.3978 20.6665 23.3844L20.6665 26.8533C20.6665 30.7754 20.751 32.0698 21.9062 33.2882C23.061 34.5067 24.9204 34.5067 28.6392 34.5067L35.7095 34.5067C37.791 34.5067 38.8315 34.5067 39.5674 33.9072C40.3027 33.3077 40.5132 32.2885 40.9331 30.2499L41.5996 27.017C42.0625 24.6982 42.2935 23.5388 41.7017 22.7694C41.1099 21.9999 39.0874 21.9999 36.8408 21.9999L22.6567 21.9999C22.6475 21.6395 22.6309 21.3116 22.5986 21.0153C22.5269 20.3535 22.3721 19.7499 21.9961 19.1997C21.6172 18.6452 21.1133 18.2901 20.5259 18.0018C19.9761 17.7322 19.2778 17.4868 18.4561 17.1978L18.0542 17.0565ZM34.6899 25.2758C35.0898 25.6567 35.105 26.2897 34.7241 26.6896L30.9146 30.6896C30.7261 30.8878 30.4644 30.9999 30.1904 30.9999C29.917 30.9999 29.6553 30.8878 29.4663 30.6896L27.9429 29.0896C27.562 28.6897 27.5771 28.0567 27.9771 27.6758C28.377 27.2949 29.0103 27.3104 29.3911 27.7103L30.1904 28.55L33.2759 25.3103C33.6567 24.9104 34.29 24.895 34.6899 25.2758ZM24 37.9999C25.1045 37.9999 26 38.8954 26 39.9999C26 41.1046 25.1045 41.9999 24 41.9999C22.8955 41.9999 22 41.1046 22 39.9999C22 38.8954 22.8955 37.9999 24 37.9999ZM38 40.0001C38 38.8955 37.1045 38.0001 36 38.0001C34.8955 38.0001 34 38.8955 34 40.0001C34 41.1046 34.8955 42.0001 36 42.0001C37.1045 42.0001 38 41.1046 38 40.0001Z" fill="#7B58E8" fill-opacity="1.000000" fill-rule="evenodd"/>
	</g>
</svg>
