<svg width="60.000000" height="60.000000" id="faq-1" viewBox="0 0 60 60" fill="none" xmlns="http://www.w3.org/2000/svg" xmlns:xlink="http://www.w3.org/1999/xlink">
	<desc>
			Created with Pixso.
	</desc>
	<defs>
		<clipPath id="clip48_1435">
			<rect id="32 / Point / Steam" width="32.000000" height="32.000000" transform="translate(14.000000 14.000000)" fill="white" fill-opacity="0"/>
		</clipPath>
	</defs>
	<rect id="icon" rx="30.000000" width="60.000000" height="60.000000" fill="#21242B" fill-opacity="1.000000"/>
	<rect id="32 / Point / Steam" width="32.000000" height="32.000000" transform="translate(14.000000 14.000000)" fill="#FFFFFF" fill-opacity="0"/>
	<g clip-path="url(#clip48_1435)">
		<path id="Vector" d="M29.938 46C38.8086 46 46 38.8365 46 30C46 21.1635 38.8086 14 29.938 14C21.9336 14 15.2964 19.8328 14.0767 27.4645L25.7686 32.515C25.9561 32.3866 26.1558 32.2749 26.3687 32.1843C26.8521 31.9763 27.3623 31.8839 27.8701 31.907L31.0068 27.1537C31.0059 27.1326 31.0059 27.1102 31.0059 27.0878C31.0059 24.2823 33.1895 22 35.875 22C38.5601 22 40.7437 24.2822 40.7437 27.0877C40.7437 29.8931 38.5601 32.1766 35.875 32.1766C35.8379 32.1766 35.8013 32.176 35.7642 32.1747L31.2759 35.5207C31.2896 36.0375 31.1982 36.5556 31.0024 37.0486C30.2495 38.9373 28.1636 39.8361 26.3545 39.047C25.2485 38.5663 24.4995 37.566 24.2549 36.4272L14 31.997C14.9868 39.8911 21.7461 46 29.938 46Z" fill="#7B58E8" fill-opacity="1.000000" fill-rule="nonzero"/>
		<path id="Vector" d="M26.6665 38.2645C28.0635 38.8719 29.6709 38.1791 30.2539 36.7206C30.5352 36.0157 30.5361 35.2357 30.2573 34.5282C29.979 33.8207 29.4536 33.268 28.7769 32.974C28.1055 32.6825 27.3867 32.6915 26.7544 32.9418L28.3931 33.65C29.4224 34.0981 29.9097 35.3332 29.4805 36.4086C29.0522 37.4832 27.8701 37.993 26.8398 37.5449L25.2549 36.8592C25.5356 37.471 26.0225 37.9839 26.6665 38.2645Z" fill="#7B58E8" fill-opacity="1.000000" fill-rule="nonzero"/>
		<path id="Vector" d="M32.6309 27.0877C32.6309 28.9571 34.0864 30.4786 35.8745 30.4786C37.6631 30.4786 39.1187 28.9571 39.1187 27.0877C39.1187 25.2195 37.6631 23.698 35.8745 23.698C34.0864 23.698 32.6309 25.2195 32.6309 27.0877ZM33.4438 27.0826C33.4438 28.4891 34.5347 29.6286 35.8794 29.6286C37.2256 29.6286 38.3174 28.4891 38.3174 27.0826C38.3174 25.676 37.2256 24.5352 35.8794 24.5352C34.5347 24.5352 33.4438 25.676 33.4438 27.0826Z" fill="#7B58E8" fill-opacity="1.000000" fill-rule="evenodd"/>
	</g>
</svg>
