<svg width="60.000000" height="60.000000" id="faq-3" viewBox="0 0 60 60" fill="none" xmlns="http://www.w3.org/2000/svg" xmlns:xlink="http://www.w3.org/1999/xlink">
	<desc>
			Created with Pixso.
	</desc>
	<defs>
		<clipPath id="clip48_1452">
			<rect id="32 / Point / Wallet" width="32.000000" height="32.000000" transform="translate(14.000000 14.000000)" fill="white" fill-opacity="0"/>
		</clipPath>
	</defs>
	<rect id="icon" rx="30.000000" width="60.000000" height="60.000000" fill="#21242B" fill-opacity="1.000000"/>
	<g clip-path="url(#clip48_1452)">
		<path id="Vector" d="M26.981 17.4417L24.3691 19.3658C25.3926 19.3333 26.522 19.3333 27.75 19.3334L30.644 19.3334C31.9883 19.3333 33.2139 19.3333 34.312 19.376L31.6865 17.4417C30.2837 16.4083 28.3838 16.4083 26.981 17.4417ZM40.979 38.8C41.1709 38.795 41.3159 38.9739 41.2637 39.1599C41.0059 40.0826 40.5962 40.8691 39.9395 41.5314C38.9775 42.5007 37.7578 42.9308 36.2515 43.135C34.7871 43.3334 32.9165 43.3334 30.5547 43.3334L27.8394 43.3334C25.4775 43.3334 23.6069 43.3334 22.1431 43.135C20.6362 42.9308 19.4165 42.5007 18.4551 41.5314C17.4932 40.5621 17.0664 39.3329 16.8638 37.8144C16.667 36.3388 16.667 34.4534 16.667 32.0731L16.667 31.9269C16.667 29.5466 16.667 27.6612 16.8638 26.1857C17.0664 24.6671 17.4932 23.438 18.4551 22.4687C19.4165 21.4994 20.6362 21.0692 22.1431 20.8651C23.6069 20.6666 25.4775 20.6667 27.8394 20.6667L30.5547 20.6667C32.9165 20.6667 34.7871 20.6666 36.2515 20.8651C37.7578 21.0692 38.9775 21.4994 39.9395 22.4687C40.5962 23.1309 41.0059 23.9174 41.2637 24.8402C41.3159 25.0261 41.1709 25.205 40.979 25.2L37.7358 25.2C34.0903 25.2 30.877 28.1025 30.877 32.0001C30.877 35.8975 34.0903 38.8 37.7358 38.8L40.979 38.8ZM21.4863 25.8477C20.9541 25.8477 20.5225 26.2826 20.5225 26.8191C20.5225 27.3556 20.9541 27.7905 21.4863 27.7905L26.627 27.7905C27.1592 27.7905 27.5908 27.3556 27.5908 26.8191C27.5908 26.2826 27.1592 25.8477 26.627 25.8477L21.4863 25.8477ZM41.2144 27.1475C41.1416 27.1428 41.0625 27.1428 40.98 27.1429L40.98 27.1429L40.9595 27.1429L37.7358 27.1429C35.0786 27.1429 32.8047 29.251 32.8047 32.0001C32.8047 34.7491 35.0786 36.8572 37.7358 36.8572L40.9595 36.8572L40.98 36.8572L40.98 36.8572C41.0625 36.8572 41.1416 36.8572 41.2144 36.8526C42.2935 36.7839 43.248 35.9326 43.3286 34.7436C43.334 34.6657 43.3335 34.5817 43.3335 34.5039L43.3335 34.5037L43.3335 34.4825L43.3335 29.5175L43.3335 29.4963L43.3335 29.4962C43.3335 29.4183 43.334 29.3344 43.3286 29.2565C43.248 28.0674 42.2935 27.2161 41.2144 27.1475ZM37.4497 33.2953C38.1338 33.2953 38.6885 32.7153 38.6885 32C38.6885 31.2847 38.1338 30.7048 37.4497 30.7048C36.7656 30.7048 36.2114 31.2847 36.2114 32C36.2114 32.7153 36.7656 33.2953 37.4497 33.2953Z" fill="#7B58E8" fill-opacity="1.000000" fill-rule="evenodd"/>
	</g>
</svg>
