<svg width="32.000000" height="32.000000" id="header-vk" viewBox="0 0 32 32" fill="none" xmlns="http://www.w3.org/2000/svg" xmlns:xlink="http://www.w3.org/1999/xlink">
	<desc>
			Created with Pixso.
	</desc>
	<defs/>
	<circle id="Ellipse 278" cx="16.000000" cy="16.000000" r="16.000000" fill="#282D36" fill-opacity="1.000000"/>
	<circle id="Ellipse 278" cx="16.000000" cy="16.000000" r="15.500000" stroke="#E9E9E9" stroke-opacity="0" stroke-width="1.000000"/>
	<path id="Vector" d="M16.7185 20.98C11.254 20.98 8.13721 17.2338 8.00732 11L10.7446 11C10.8345 15.5754 12.8524 17.5135 14.4508 17.9131L14.4508 11L17.0283 11L17.0283 14.946C18.6068 14.7762 20.2649 12.978 20.8243 11L23.4019 11C22.9723 13.4376 21.1741 15.2358 19.8953 15.975C21.1741 16.5744 23.222 18.1428 24.0013 20.98L21.1641 20.98C20.5547 19.0819 19.0364 17.6134 17.0283 17.4136L17.0283 20.98L16.7185 20.98Z" fill="#858892" fill-opacity="1.000000" fill-rule="evenodd"/>
</svg>
