<svg width="32.000000" height="32.000000" id="header-telegramm" viewBox="0 0 32 32" fill="none" xmlns="http://www.w3.org/2000/svg" xmlns:xlink="http://www.w3.org/1999/xlink">
	<desc>
			Created with Pixso.
	</desc>
	<defs/>
	<circle id="Ellipse 278" cx="16.000000" cy="16.000000" r="16.000000" fill="#282D36" fill-opacity="1.000000"/>
	<circle id="Ellipse 278" cx="16.000000" cy="16.000000" r="15.500000" stroke="#E9E9E9" stroke-opacity="0" stroke-width="1.000000"/>
	<path id="Path-3" d="M8.23279 15.8204C12.3933 14.0076 15.1677 12.8126 16.5559 12.2352C20.5194 10.5867 21.343 10.3003 21.8798 10.2908C21.9978 10.2887 22.2618 10.318 22.4329 10.4568C22.5771 10.5739 22.6169 10.7322 22.636 10.8433C22.6549 10.9543 22.6786 11.2074 22.6598 11.4051C22.4451 13.6619 21.5156 19.1384 21.0428 21.666C20.8428 22.7355 20.4489 23.0941 20.0675 23.1292C19.2386 23.2055 18.6094 22.5815 17.8066 22.0553C16.5504 21.2319 15.8408 20.7193 14.6216 19.9158C13.2124 18.9872 14.1259 18.4769 14.929 17.6428C15.1392 17.4245 18.7909 14.103 18.8616 13.8017C18.8704 13.764 18.8785 13.6235 18.7952 13.5493C18.7117 13.4752 18.5885 13.5005 18.4996 13.5207C18.3737 13.5493 16.3669 14.8756 12.4796 17.4997C11.91 17.8908 11.394 18.0814 10.9318 18.0714C10.4222 18.0604 9.44202 17.7833 8.71326 17.5464C7.81946 17.2559 7.10913 17.1023 7.17102 16.6089C7.20325 16.3519 7.55713 16.089 8.23279 15.8204Z" fill="#858892" fill-opacity="1.000000" fill-rule="evenodd"/>
</svg>
