<svg width="190.000000" height="32.000000" id="logo" viewBox="0 0 190 32" fill="none" xmlns="http://www.w3.org/2000/svg" xmlns:xlink="http://www.w3.org/1999/xlink">
	<desc>
			Created with Pixso.
	</desc>
	<defs>
		<linearGradient id="paint_linear_32_1540_0" x1="11.500000" y1="4.000000" x2="11.500000" y2="27.000000" gradientUnits="userSpaceOnUse">
			<stop stop-color="#70A7FF"/>
			<stop offset="1.000000" stop-color="#2C7AF6"/>
		</linearGradient>
	</defs>
	<rect id="1" rx="14.000000" width="28.000000" height="28.000000" transform="translate(0.000000 2.000000)" fill="#7B58E8" fill-opacity="1.000000"/>
	<path id="Subtract" d="M20.1747 8.21945C20.1486 8.17145 20.0667 8.1014 19.9925 8.06368C19.8747 8.00373 19.2462 7.99603 14.9551 8.00143C12.2586 8.00479 10.0004 8.01568 9.93698 8.0256C9.73654 8.05695 9.27505 8.23087 9.09363 8.34342C8.62918 8.63166 8.2612 9.0971 8.08121 9.62417C7.98138 9.91639 7.97913 9.97581 7.96408 12.7107C7.94733 15.7423 7.94897 15.7653 8.19922 15.9479C8.32623 16.0406 8.38028 16.0433 10.4247 16.0561L12.52 16.0691L12.5943 16.1806C12.6355 16.2424 12.6602 16.3488 12.6497 16.4191C12.6388 16.4917 11.5904 18.0335 10.2 20.0214C7.98093 23.1941 7.6897 23.6002 7.79654 23.7923C7.81546 23.8264 7.84698 23.8538 7.88248 23.8887L7.99564 24L10.6751 24C13.1304 24 13.4376 24.0042 13.6133 23.8569C13.6435 23.8315 13.6699 23.8015 13.7028 23.7663C13.7573 23.7078 14.9351 22.0395 16.3202 20.0588C18.2115 17.3545 18.8386 16.4254 18.8386 16.3276C18.8386 16.2874 18.8263 16.2418 18.8051 16.1981C18.7854 16.1574 18.7579 16.1183 18.7253 16.0863L18.6122 15.9749L16.0249 15.9749C13.2929 15.9749 13.2266 15.9702 13.1481 15.7689C13.1323 15.7285 13.1194 15.1361 13.1194 14.4524C13.1194 13.2697 13.1239 13.2048 13.2117 13.1186C13.3022 13.0296 13.3654 13.0279 16.6282 13.0279L19.9526 13.0279L20.2222 12.7628L20.2222 10.5348C20.2222 9.09329 20.2055 8.27585 20.1747 8.21945Z" fill="#FFFFFF" fill-opacity="1.000000" fill-rule="nonzero"/>
	<path id="FatherPay" d="M40 24.7291L40 6L55.0373 6L55.0373 9.4515L43.6422 9.4515L43.6422 14.2943L54.621 14.2943L54.621 17.7993L43.6422 17.7993L43.6422 24.7291L40 24.7291ZM92.7781 18.495L92.7781 24.7291L89.1359 24.7291L89.1359 6L92.7781 6L92.7781 13.5184C93.9228 11.913 95.6399 10.9498 97.6431 10.9498C101.546 10.9498 104.277 14.0267 104.277 18.495L104.277 24.7291L100.635 24.7291L100.635 18.495C100.635 16.087 98.9699 14.4013 96.6545 14.4013C94.3391 14.4013 92.7781 16.087 92.7781 18.495ZM136.9 24.7291L136.9 6L146.214 6C150.116 6 153.394 8.64883 153.394 12.6355C153.394 16.408 149.934 19.2709 146.214 19.2709L140.542 19.2709L140.542 24.7291L136.9 24.7291ZM82.608 14.8027L82.608 18.4682C82.608 20.6087 83.8568 21.6522 86.3544 21.6522L86.3544 25.1304C81.5414 25.1304 78.9658 22.6689 78.9658 18.4682L78.9658 14.8027L76.3122 14.8027L76.3122 13.3043L81.1512 8.35452L82.608 8.35452L82.608 11.3512L86.3544 11.3512L86.3544 14.8027L82.608 14.8027ZM149.752 12.6355C149.752 10.7893 148.243 9.4515 146.214 9.4515L140.542 9.4515L140.542 15.7659L146.214 15.7659C148.217 15.7659 149.752 14.4013 149.752 12.6355ZM73.7794 24.7291L70.5535 24.7291L70.1892 22.9632C68.8624 24.3278 66.9632 25.1304 64.7519 25.1304C60.4332 25.1304 57.1812 22.107 57.1812 18.0669C57.1812 13.9732 60.4072 10.9498 64.7519 10.9498C66.9372 10.9498 68.8624 11.7258 70.1892 13.1171L70.5535 11.3512L73.7794 11.3512L73.7794 24.7291ZM122.307 18.9766L110.495 18.9766C110.885 20.903 112.551 22.1873 114.736 22.1873C116.297 22.1873 117.546 21.5987 118.222 20.6355L121.916 20.6355C120.928 23.3645 118.144 25.1304 114.58 25.1304C110.105 25.1304 106.749 22.107 106.749 18.0669C106.749 13.9732 110.079 10.9498 114.58 10.9498C119.029 10.9498 122.359 13.8127 122.359 18.0669C122.359 18.3612 122.359 18.6823 122.307 18.9766ZM134.639 10.9498L134.639 14.9097C130.763 14.9097 128.499 17.1839 128.499 20.9298L128.499 24.7291L124.857 24.7291L124.857 11.3512L128.109 11.3512L128.499 14.8294C129.696 12.4482 131.855 10.9498 134.639 10.9498ZM171.441 24.7291L168.215 24.7291L167.851 22.9632C166.524 24.3278 164.625 25.1304 162.414 25.1304C158.095 25.1304 154.843 22.107 154.843 18.0669C154.843 13.9732 158.069 10.9498 162.414 10.9498C164.599 10.9498 166.524 11.7258 167.851 13.1171L168.215 11.3512L171.441 11.3512L171.441 24.7291ZM183.47 30L179.62 30L181.467 24.7291L177.85 24.7291L173.116 11.3512L176.966 11.3512L180.426 21.1438L182.742 21.1438L186.176 11.3512L190 11.3512L183.47 30ZM110.495 17.1037L118.612 17.1037C118.248 15.204 116.713 13.9732 114.58 13.9732C112.472 13.9732 110.885 15.2308 110.495 17.1037ZM60.8234 18.0669C60.8234 20.2341 62.8007 21.8127 65.5323 21.8127C68.29 21.8127 70.1372 20.2876 70.1372 18.0669C70.1372 15.8194 68.264 14.2408 65.5323 14.2408C62.8007 14.2408 60.8234 15.8462 60.8234 18.0669ZM158.485 18.0669C158.485 20.2341 160.463 21.8127 163.194 21.8127C165.952 21.8127 167.799 20.2876 167.799 18.0669C167.799 15.8194 165.926 14.2408 163.194 14.2408C160.463 14.2408 158.485 15.8462 158.485 18.0669Z" fill="#FFFFFF" fill-opacity="1.000000" fill-rule="evenodd"/>
</svg>
