<svg width="20.750000" height="17.500000" id="pay-input" viewBox="0 0 20.75 17.5" fill="none" xmlns="http://www.w3.org/2000/svg" xmlns:xlink="http://www.w3.org/1999/xlink">
	<desc>
			Created with Pixso.
	</desc>
	<defs/>
	<path id="Vector" d="M19.1394 14.2778C19.1799 14.1342 19.067 13.9962 18.9179 14L16.394 14C13.5574 14 11.0571 11.7591 11.0571 8.75C11.0571 5.74091 13.5574 3.5 16.394 3.5L18.9179 3.5C19.067 3.50388 19.1799 3.36575 19.1394 3.2222C18.9387 2.50974 18.6201 1.90253 18.1088 1.39124C17.3604 0.642883 16.4114 0.31076 15.239 0.153137C14.0998 -3.05176e-05 12.6442 -3.05176e-05 10.8064 0L8.6936 0C6.85583 -3.05176e-05 5.40021 -3.05176e-05 4.26099 0.153137C3.08856 0.31076 2.13959 0.642883 1.39124 1.39124C0.642883 2.13962 0.310791 3.08856 0.153137 4.26099C0 5.40018 0 6.8558 0 8.69357L0 8.80643C0 10.6442 0 12.0998 0.153137 13.239C0.310791 14.4114 0.642883 15.3604 1.39124 16.1088C2.13959 16.8571 3.08856 17.1892 4.26099 17.3469C5.40021 17.5 6.85577 17.5 8.69354 17.5L10.8065 17.5C12.6442 17.5 14.0998 17.5 15.239 17.3469C16.4114 17.1892 17.3604 16.8571 18.1088 16.1088C18.6201 15.5975 18.9387 14.9902 19.1394 14.2778ZM3 4.75C3 4.33578 3.33582 4 3.75 4L7.75 4C8.16418 4 8.5 4.33578 8.5 4.75C8.5 5.16422 8.16418 5.5 7.75 5.5L3.75 5.5C3.33582 5.5 3 5.16422 3 4.75ZM18.9186 5C18.9825 4.99997 19.0443 4.99997 19.1009 5.00354C19.9407 5.05658 20.6835 5.71381 20.746 6.63181C20.7501 6.69199 20.75 6.75684 20.75 6.81696L20.75 6.81702L20.75 6.83334L20.75 10.6667L20.75 10.683L20.75 10.683C20.75 10.7432 20.7501 10.808 20.746 10.8682C20.6835 11.7862 19.9408 12.4435 19.1009 12.4965C19.0443 12.5001 18.9825 12.5 18.9186 12.5L18.9186 12.5L18.9026 12.5L16.3941 12.5C14.3264 12.5 12.5572 10.8724 12.5572 8.75C12.5572 6.62756 14.3264 5 16.3941 5L18.9026 5L18.9186 5ZM17.1356 8.75C17.1356 9.30228 16.704 9.75 16.1717 9.75C15.6393 9.75 15.2078 9.30228 15.2078 8.75C15.2078 8.19772 15.6393 7.75 16.1717 7.75C16.704 7.75 17.1356 8.19772 17.1356 8.75Z" fill="#4F5562" fill-opacity="1.000000" fill-rule="evenodd"/>
</svg>
