<svg width="16.000000" height="16.000000" id="qsn" viewBox="0 0 16 16" fill="none" xmlns="http://www.w3.org/2000/svg" xmlns:xlink="http://www.w3.org/1999/xlink">
	<desc>
			Created with Pixso.
	</desc>
	<defs>
		<clipPath id="clip15_1374">
			<rect id="16 / Main / FAQ" width="16.000000" height="16.000000" fill="white" fill-opacity="0"/>
		</clipPath>
	</defs>
	<g clip-path="url(#clip15_1374)">
		<path id="Vector" d="M14.6667 8.00006C14.6667 11.6819 11.6819 14.6667 8 14.6667C4.31812 14.6667 1.33337 11.6819 1.33337 8.00006C1.33337 4.31812 4.31812 1.33337 8 1.33337C11.6819 1.33337 14.6667 4.31812 14.6667 8.00006Z" fill="#282D36" fill-opacity="1.000000" fill-rule="nonzero"/>
		<path id="Vector" d="M8 5.16663C7.58582 5.16663 7.25 5.50244 7.25 5.91663C7.25 6.19275 7.02612 6.41663 6.75 6.41663C6.47388 6.41663 6.25 6.19275 6.25 5.91663C6.25 4.95013 7.03345 4.16663 8 4.16663C8.96655 4.16663 9.75 4.95013 9.75 5.91663C9.75 6.3905 9.56104 6.82129 9.25525 7.13593C9.19385 7.19928 9.13513 7.25787 9.0791 7.31378C8.9353 7.45758 8.8092 7.5835 8.69861 7.72565C8.55261 7.91327 8.5 8.05115 8.5 8.16663L8.5 8.66663C8.5 8.94275 8.27612 9.16663 8 9.16663C7.72388 9.16663 7.5 8.94275 7.5 8.66663L7.5 8.16663C7.5 7.72986 7.70337 7.37622 7.90942 7.11145C8.06189 6.91547 8.25366 6.72418 8.40918 6.56891C8.45605 6.52209 8.49976 6.47858 8.53809 6.43915C8.66968 6.30359 8.75 6.12 8.75 5.91663C8.75 5.50244 8.41418 5.16663 8 5.16663ZM8 11.3333C8.36816 11.3333 8.66663 11.0348 8.66663 10.6666C8.66663 10.2985 8.36816 9.99994 8 9.99994C7.63184 9.99994 7.33337 10.2985 7.33337 10.6666C7.33337 11.0348 7.63184 11.3333 8 11.3333Z" fill="#858892" fill-opacity="1.000000" fill-rule="evenodd"/>
	</g>
</svg>
