<svg width="32.000000" height="32.000000" id="teleg" viewBox="0 0 32 32" fill="none" xmlns="http://www.w3.org/2000/svg" xmlns:xlink="http://www.w3.org/1999/xlink">
	<desc>
			Created with Pixso.
	</desc>
	<defs/>
	<circle id="Ellipse 278" cx="16.000000" cy="16.000000" r="16.000000" fill="#282D36" fill-opacity="1.000000"/>
	<circle id="Ellipse 278" cx="16.000000" cy="16.000000" r="15.500000" stroke="#E9E9E9" stroke-opacity="0" stroke-width="1.000000"/>
	<path id="Path-3" d="M8.23242 15.8203C12.3936 14.0076 15.167 12.8126 16.5557 12.2352C20.5195 10.5867 21.3428 10.3003 21.8799 10.2908C21.998 10.2888 22.2617 10.318 22.4326 10.4567C22.5771 10.5739 22.6162 10.7322 22.6357 10.8433C22.6543 10.9543 22.6787 11.2074 22.6592 11.4051C22.4443 13.6619 21.5156 19.1384 21.043 21.666C20.8428 22.7355 20.4482 23.0941 20.0674 23.1292C19.2383 23.2054 18.6094 22.5815 17.8066 22.0552C16.5498 21.2319 15.8408 20.7193 14.6211 19.9158C13.2119 18.9872 14.126 18.4769 14.9287 17.6428C15.1387 17.4245 18.791 14.103 18.8613 13.8016C18.8701 13.764 18.8779 13.6235 18.7949 13.5493C18.7109 13.4752 18.5879 13.5005 18.499 13.5207C18.373 13.5493 16.3672 14.8756 12.4795 17.4997C11.9102 17.8908 11.3936 18.0814 10.9316 18.0714C10.4219 18.0604 9.44141 17.7833 8.71289 17.5464C7.81934 17.2559 7.10938 17.1023 7.1709 16.6088C7.20312 16.3519 7.55664 16.089 8.23242 15.8203Z" fill="#858892" fill-opacity="1.000000" fill-rule="evenodd"/>
</svg>
