<svg width="52.000000" height="52.000000" id="ul-1" viewBox="0 0 52 52" fill="none" xmlns="http://www.w3.org/2000/svg" xmlns:xlink="http://www.w3.org/1999/xlink">
	<desc>
			Created with Pixso.
	</desc>
	<defs>
		<clipPath id="clip15_1279">
			<rect id="52 / Pay / Card" width="52.000000" height="52.000000" fill="white" fill-opacity="0"/>
		</clipPath>
		<linearGradient id="paint_linear_15_1278_0" x1="35.466980" y1="36.477577" x2="30.080078" y2="36.477577" gradientUnits="userSpaceOnUse">
			<stop stop-color="#1F5CD7"/>
			<stop offset="1.000000" stop-color="#02AEFF"/>
		</linearGradient>
	</defs>
	<rect id="52 / Pay / Card" width="52.000000" height="52.000000" fill="#FFFFFF" fill-opacity="0"/>
	<g clip-path="url(#clip15_1279)">
		<path id="Vector" d="M47 26C47 37.598 37.598 47 26 47C14.402 47 5 37.598 5 26C5 14.402 14.402 5 26 5C37.598 5 47 14.402 47 26Z" fill="#FFFFFF" fill-opacity="1.000000" fill-rule="evenodd"/>
		<mask id="mask15_1262" mask-type="alpha" maskUnits="userSpaceOnUse" x="18.000000" y="21.000000" width="16.000000" height="10.000000">
			<path id="Vector" d="M18 21L34 21L34 31L18 31L18 21Z" fill="#000000" fill-opacity="1.000000" fill-rule="evenodd"/>
		</mask>
		<g mask="url(#mask15_1262)">
			<mask id="mask15_1264" mask-type="alpha" maskUnits="userSpaceOnUse" x="18.330078" y="21.142883" width="15.603149" height="9.714294">
				<path id="Vector" d="M18.3301 21.1429L33.9332 21.1429L33.9332 30.8572L18.3301 30.8572L18.3301 21.1429Z" fill="#000000" fill-opacity="1.000000" fill-rule="evenodd"/>
			</mask>
			<g mask="url(#mask15_1264)">
				<path id="Vector" d="M28.2361 22.1771L24.0137 22.1771L24.0137 29.7789L28.2361 29.7789L28.2361 22.1771Z" fill="#FF5A00" fill-opacity="1.000000" fill-rule="nonzero"/>
				<path id="Vector" d="M24.2953 25.9781C24.2953 24.4336 25.0198 23.0628 26.1317 22.1772C25.3134 21.5325 24.2811 21.1428 23.1553 21.1428C20.4882 21.1428 18.3301 23.3054 18.3301 25.9781C18.3301 28.6507 20.4882 30.8133 23.1553 30.8133C24.2811 30.8133 25.3134 30.4237 26.1317 29.779C25.0183 28.9058 24.2953 27.5225 24.2953 25.9781Z" fill="#EB001B" fill-opacity="1.000000" fill-rule="nonzero"/>
				<path id="Vector" d="M33.9324 25.9781C33.9324 28.6507 31.7744 30.8133 29.1072 30.8133C27.9812 30.8133 26.9491 30.4237 26.1309 29.779C27.2567 28.8917 27.9673 27.5225 27.9673 25.9781C27.9673 24.4336 27.2427 23.0628 26.1309 22.1772C26.9475 21.5325 27.9797 21.1428 29.1056 21.1428C31.7744 21.1428 33.9324 23.3195 33.9324 25.9781Z" fill="#F79E1B" fill-opacity="1.000000" fill-rule="nonzero"/>
			</g>
		</g>
		<mask id="mask15_1273" mask-type="alpha" maskUnits="userSpaceOnUse" x="17.000000" y="10.000000" width="18.000000" height="7.000000">
			<path id="Vector" d="M17 10L35 10L35 17L17 17L17 10Z" fill="#000000" fill-opacity="1.000000" fill-rule="evenodd"/>
		</mask>
		<g mask="url(#mask15_1273)">
			<path id="Vector" d="M28.7084 10.2855C27.4364 10.2855 26.2998 11.0573 26.2998 12.4833C26.2998 14.1186 28.3157 14.2315 28.3157 15.053C28.3157 15.3989 27.9771 15.7086 27.3987 15.7086C26.578 15.7086 25.9645 15.2759 25.9645 15.2759L25.7021 16.7148C25.7021 16.7148 26.4087 17.0803 27.3469 17.0803C28.7375 17.0803 29.8317 16.2706 29.8317 14.8203C29.8317 13.0923 27.8075 12.9827 27.8075 12.2202C27.8075 11.9492 28.0854 11.6523 28.6621 11.6523C29.3129 11.6523 29.8436 11.967 29.8436 11.967L30.1005 10.5772C30.1005 10.5772 29.5229 10.2855 28.7084 10.2855ZM17.0718 10.3904L17.041 10.6002C17.041 10.6002 17.5762 10.7148 18.058 10.9435C18.6786 11.2058 18.7228 11.3585 18.8273 11.8326L19.9661 16.9722L21.4927 16.9722L23.8444 10.3904L22.3214 10.3904L20.8102 14.8654L20.1935 11.0722C20.137 10.6381 19.8505 10.3904 19.4999 10.3904L17.0718 10.3904ZM24.4569 10.3904L23.2621 16.9722L24.7144 16.9722L25.905 10.3904L24.4569 10.3904ZM32.5574 10.3904C32.207 10.3904 32.0215 10.6099 31.8853 10.9935L29.7576 16.9722L31.2806 16.9722L31.5752 15.9757L33.4308 15.9757L33.61 16.9722L34.9539 16.9722L33.7815 10.3904L32.5574 10.3904ZM32.7554 12.1686L33.2068 14.6384L31.9973 14.6384L32.7554 12.1686Z" fill="#00259F" fill-opacity="1.000000" fill-rule="nonzero"/>
		</g>
		<path id="Vector" d="M18.7079 35.0011C18.8729 35 19.3632 34.9502 19.5709 35.7408C19.7108 36.2734 19.9337 37.1457 20.2395 38.3579L20.3641 38.3579C20.6921 37.0799 20.9174 36.2076 21.04 35.7408C21.2499 34.9419 21.7747 35.0011 21.9844 35.0011L23.6038 35.0011L23.6038 40.6818L21.9532 40.6818L21.9532 37.3341L21.8427 37.3341L20.9227 40.6818L19.681 40.6818L18.761 37.3316L18.6503 37.3316L18.6503 40.6818L17 40.6818L17 35.0011L18.7079 35.0011ZM25.9735 35.0011L25.9735 38.3513L26.1052 38.3513L27.2242 35.5965C27.4415 35.0482 27.9045 35.0011 27.9045 35.0011L29.5015 35.0011L29.5015 40.6818L27.8167 40.6818L27.8167 37.3316L27.6851 37.3316L26.5879 40.0865C26.3707 40.6322 25.8857 40.6818 25.8857 40.6818L24.2887 40.6818L24.2887 35.0011L25.9735 35.0011ZM35.325 37.7006C35.0898 38.4517 34.3519 38.9896 33.5348 38.9896L31.7679 38.9896L31.7679 40.6818L30.1658 40.6818L30.1658 37.7006L35.325 37.7006Z" fill="#28A43F" fill-opacity="1.000000" fill-rule="evenodd"/>
		<path id="Vector" d="M33.6104 35.001L30.0801 35.001C30.1641 36.2657 31.1298 37.3484 32.1295 37.3484L35.4346 37.3484C35.6252 36.2973 34.9686 35.001 33.6104 35.001Z" fill="url(#paint_linear_15_1278_0)" fill-opacity="1.000000" fill-rule="evenodd"/>
	</g>
</svg>
