<svg width="52.000000" height="52.000000" id="ul-2" viewBox="0 0 52 52" fill="none" xmlns="http://www.w3.org/2000/svg" xmlns:xlink="http://www.w3.org/1999/xlink">
	<desc>
			Created with Pixso.
	</desc>
	<defs>
		<clipPath id="clip15_1045">
			<rect id="52 / Pay / Qiwi" width="52.000000" height="52.000000" fill="white" fill-opacity="0"/>
		</clipPath>
	</defs>
	<rect id="52 / Pay / Qiwi" width="52.000000" height="52.000000" fill="#FFFFFF" fill-opacity="0"/>
	<g clip-path="url(#clip15_1045)">
		<path id="Vector" d="M26 5L26.0022 5C37.6002 5 47.0022 14.402 47.0022 26C47.0022 37.598 37.6002 47 26.0022 47L26 47C14.402 47 5 37.598 5 26C5 14.402 14.402 5 26 5Z" fill="#FD8C00" fill-opacity="1.000000" fill-rule="evenodd"/>
		<path id="Vector" d="M35.4723 31.4648C35.9548 31.6504 36.1404 32.3733 36.1772 32.6887C36.2517 33.264 36.0851 33.4865 35.8995 33.4865C35.7137 33.4865 35.4539 33.264 35.176 32.8189C34.8975 32.3733 34.7863 31.873 34.9351 31.613C35.0272 31.4458 35.2307 31.372 35.4723 31.4648ZM32.6532 33.5609C32.9501 33.5609 33.2839 33.6906 33.5808 33.95C34.1556 34.4325 34.3228 34.9888 34.0258 35.3969C33.8586 35.601 33.5808 35.7307 33.2654 35.7307C32.9501 35.7307 32.6163 35.6194 32.3938 35.4154C31.8743 34.9703 31.7262 34.2278 32.0594 33.8203C32.1897 33.6531 32.3938 33.5609 32.6532 33.5609ZM26.1617 38.9209C19.1129 38.9209 13.4004 33.2081 13.4004 26.1601C13.4004 19.1122 19.1135 13.4 26.1613 13.4C33.2095 13.4 38.9226 19.1128 38.9226 26.1601C38.9226 28.5525 38.255 30.7973 37.124 32.7077C37.0865 32.763 36.9937 32.7446 36.9752 32.6702C36.5302 29.5359 34.6196 27.8106 31.8374 27.2917C31.5959 27.2543 31.559 27.1061 31.8743 27.0692C32.7277 26.9949 33.933 27.0133 34.5637 27.1246C34.6006 26.8092 34.6196 26.4755 34.6196 26.1417C34.6196 21.4861 30.8354 17.7022 26.1797 17.7022C21.5244 17.7022 17.7404 21.4861 17.7404 26.1417C17.7404 30.7973 21.5244 34.5812 26.1802 34.5812L26.5695 34.5812C26.4373 33.8282 26.3812 33.0638 26.4022 32.2995C26.4211 31.7801 26.5325 31.7058 26.755 32.1139C27.9236 34.1356 29.5931 35.9532 32.8573 36.6767C35.5282 37.2705 38.1991 37.9565 41.0741 41.6101C41.3336 41.9255 40.9445 42.2592 40.6475 41.9998C37.7172 39.4028 35.0461 38.5496 32.6163 38.5496C29.8894 38.5687 28.0354 38.9209 26.1617 38.9209Z" fill="#FFFFFF" fill-opacity="1.000000" fill-rule="nonzero"/>
	</g>
</svg>
