<svg width="52.000000" height="52.000000" id="ul-3" viewBox="0 0 52 52" fill="none" xmlns="http://www.w3.org/2000/svg" xmlns:xlink="http://www.w3.org/1999/xlink">
	<desc>
			Created with Pixso.
	</desc>
	<defs>
		<clipPath id="clip15_991">
			<rect id="52 / Pay / Youmoney" width="52.000000" height="52.000000" fill="white" fill-opacity="0"/>
		</clipPath>
	</defs>
	<rect id="52 / Pay / Youmoney" width="52.000000" height="52.000000" fill="#FFFFFF" fill-opacity="0"/>
	<g clip-path="url(#clip15_991)">
		<path id="Vector" d="M26 5C37.598 5 47 14.402 47 26C47 37.598 37.598 47 26 47C14.402 47 5 37.598 5 26C5 14.402 14.402 5 26 5Z" fill="#8B3FFD" fill-opacity="1.000000" fill-rule="evenodd"/>
		<path id="Vector" d="M29.1489 17.075C23.8859 17.075 19.6992 21.3215 19.6992 26.525C19.6992 31.7883 23.9457 35.975 29.1489 35.975C34.3522 35.975 38.5986 31.7285 38.5986 26.525C38.6584 21.3215 34.3522 17.075 29.1489 17.075ZM29.1489 30.0538C27.235 30.0538 25.6202 28.439 25.6202 26.525C25.6202 24.6111 27.235 22.9962 29.1489 22.9962C31.0627 22.9962 32.6776 24.6111 32.6776 26.525C32.6776 28.439 31.1226 30.0538 29.1489 30.0538Z" fill="#FFFFFF" fill-opacity="1.000000" fill-rule="nonzero"/>
		<path id="Vector" d="M19.6996 19.175L19.6996 33.875L16.4519 33.875L12.3496 19.175L19.6996 19.175Z" fill="#FFFFFF" fill-opacity="1.000000" fill-rule="nonzero"/>
	</g>
</svg>
