<svg width="52.000000" height="52.000000" id="ul-4" viewBox="0 0 52 52" fill="none" xmlns="http://www.w3.org/2000/svg" xmlns:xlink="http://www.w3.org/1999/xlink">
	<desc>
			Created with Pixso.
	</desc>
	<defs>
		<clipPath id="clip15_1048">
			<rect id="52 / Pay / SPB" width="52.000000" height="52.000000" fill="white" fill-opacity="0"/>
		</clipPath>
	</defs>
	<rect id="52 / Pay / SPB" width="52.000000" height="52.000000" fill="#FFFFFF" fill-opacity="0"/>
	<g clip-path="url(#clip15_1048)">
		<path id="Vector" d="M26 5C37.598 5 47 14.402 47 26C47 37.598 37.598 47 26 47C14.402 47 5 37.598 5 26C5 14.402 14.402 5 26 5Z" fill="#FFFFFF" fill-opacity="1.000000" fill-rule="evenodd"/>
		<mask id="mask15_1051" mask-type="alpha" maskUnits="userSpaceOnUse" x="17.408203" y="15.325989" width="17.500000" height="21.636414">
			<path id="Vector" d="M17.4082 15.326L34.9082 15.326L34.9082 36.9624L17.4082 36.9624L17.4082 15.326Z" fill="#000000" fill-opacity="1.000000" fill-rule="evenodd"/>
		</mask>
		<g mask="url(#mask15_1051)">
			<path id="Vector" d="M17.4082 20.0356L20.0032 24.719L20.0032 27.5757L17.4113 32.2499L17.4082 20.0356Z" fill="#5B57A2" fill-opacity="1.000000" fill-rule="nonzero"/>
			<path id="Vector" d="M27.373 23.0147L29.8047 21.5099L34.7811 21.5052L27.373 26.0874L27.373 23.0147Z" fill="#D90751" fill-opacity="1.000000" fill-rule="nonzero"/>
			<path id="Vector" d="M27.3588 20.008L27.3726 26.2086L24.7715 24.5949L24.7715 15.326L27.3588 20.008Z" fill="#FAB718" fill-opacity="1.000000" fill-rule="nonzero"/>
			<path id="Vector" d="M34.7806 21.5052L29.804 21.5099L27.3588 20.008L24.7715 15.326L34.7806 21.5052Z" fill="#ED6F26" fill-opacity="1.000000" fill-rule="nonzero"/>
			<path id="Vector" d="M27.3726 32.2758L27.3726 29.2674L24.7715 27.6844L24.7728 36.9624L27.3726 32.2758Z" fill="#63B22F" fill-opacity="1.000000" fill-rule="nonzero"/>
			<path id="Vector" d="M29.7975 30.7847L20.0031 24.719L17.4082 20.0356L34.7695 30.7786L29.7975 30.7847Z" fill="#1487C9" fill-opacity="1.000000" fill-rule="nonzero"/>
			<path id="Vector" d="M24.7715 36.9624L27.3707 32.2758L29.7963 30.7847L34.7683 30.7786L24.7715 36.9624Z" fill="#017F36" fill-opacity="1.000000" fill-rule="nonzero"/>
			<path id="Vector" d="M17.4102 32.2498L24.791 27.6845L22.3096 26.1473L20.0021 27.5756L17.4102 32.2498Z" fill="#984995" fill-opacity="1.000000" fill-rule="nonzero"/>
		</g>
	</g>
</svg>
