<svg width="52.000000" height="52.000000" id="ul-6" viewBox="0 0 52 52" fill="none" xmlns="http://www.w3.org/2000/svg" xmlns:xlink="http://www.w3.org/1999/xlink">
	<desc>
			Created with Pixso.
	</desc>
	<defs>
		<clipPath id="clip15_1066">
			<rect id="52 / Pay / USDT" width="52.000000" height="52.000000" fill="white" fill-opacity="0"/>
		</clipPath>
	</defs>
	<rect id="52 / Pay / USDT" width="52.000000" height="52.000000" fill="#FFFFFF" fill-opacity="0"/>
	<g clip-path="url(#clip15_1066)">
		<path id="Vector" d="M12.1569 8.18665L4.19189 24.917C4.16162 24.9793 4.15198 25.0496 4.16455 25.1176C4.177 25.1857 4.21094 25.248 4.26147 25.2954L25.7728 45.9086C25.834 45.9672 25.9153 45.9999 26 45.9999C26.0847 45.9999 26.166 45.9672 26.2272 45.9086L47.7386 25.2967C47.7891 25.2493 47.823 25.187 47.8354 25.1189C47.848 25.0508 47.8384 24.9806 47.8081 24.9183L39.8431 8.18793C39.8174 8.13174 39.7761 8.08414 39.724 8.05081C39.672 8.01749 39.6115 7.99985 39.5497 8.00003L12.4529 8.00003C12.3907 7.99927 12.3298 8.01645 12.2773 8.04956C12.2247 8.08267 12.183 8.13028 12.1569 8.18665Z" fill="#50AF95" fill-opacity="1.000000" fill-rule="evenodd"/>
		<path id="Vector" d="M28.7637 26.6351C28.6093 26.6467 27.8113 26.6943 26.0315 26.6943C24.6158 26.6943 23.6107 26.6519 23.2581 26.6351C17.7872 26.3945 13.7037 25.4421 13.7037 24.3019C13.7037 23.1617 17.7872 22.2106 23.2581 21.9661L23.2581 25.6866C23.6158 25.7124 24.6403 25.7729 26.0559 25.7729C27.7546 25.7729 28.6053 25.7021 28.7585 25.6879L28.7585 21.9686C34.2178 22.2119 38.2922 23.1642 38.2922 24.3019C38.2922 25.4395 34.2191 26.3919 28.7585 26.6339L28.7637 26.6351ZM28.7637 21.5838L28.7637 18.2545L36.3824 18.2545L36.3824 13.1775L15.6393 13.1775L15.6393 18.2545L23.2568 18.2545L23.2568 21.5826C17.0653 21.867 12.4091 23.0934 12.4091 24.5631C12.4091 26.0328 17.0653 27.258 23.2568 27.5437L23.2568 38.2126L28.7623 38.2126L28.7623 27.5399C34.9398 27.2555 39.5883 26.0303 39.5883 24.5619C39.5883 23.0934 34.9436 21.8683 28.7623 21.5826L28.7637 21.5838Z" fill="#FFFFFF" fill-opacity="1.000000" fill-rule="evenodd"/>
	</g>
</svg>
