<svg width="52.000000" height="52.000000" id="ul-8" viewBox="0 0 52 52" fill="none" xmlns="http://www.w3.org/2000/svg" xmlns:xlink="http://www.w3.org/1999/xlink">
	<desc>
			Created with Pixso.
	</desc>
	<defs>
		<clipPath id="clip15_985">
			<rect id="52 / Pay / TRX" width="52.000000" height="52.000000" fill="white" fill-opacity="0"/>
		</clipPath>
	</defs>
	<rect id="52 / Pay / TRX" width="52.000000" height="52.000000" fill="#FFFFFF" fill-opacity="0"/>
	<g clip-path="url(#clip15_985)">
		<path id="Vector" d="M47.0002 25.7055C47.1622 37.3024 37.8923 46.8348 26.2955 46.9967C14.6987 47.1586 5.16626 37.8888 5.00439 26.292C4.84241 14.6951 14.1123 5.16272 25.7091 5.00079C37.306 4.83887 46.8384 14.1087 47.0002 25.7055Z" fill="#EB0017" fill-opacity="1.000000" fill-rule="evenodd"/>
		<path id="Vector" d="M36.1536 20.561L27.05 24.8293L33.1348 18.4138L36.1536 20.561ZM32.3735 18.125L25.4751 25.433L15.9673 14.1875L32.3735 18.125ZM15.8466 15.1797L25.0813 26.0998L23.9 37.8073L15.8466 15.1797ZM24.614 37.8125L25.8058 26.2257L35.7283 21.5742L24.614 37.8125Z" fill="#FFFFFF" fill-opacity="1.000000" fill-rule="nonzero"/>
	</g>
</svg>
