<svg width="32.000000" height="32.000000" id="vk" viewBox="0 0 32 32" fill="none" xmlns="http://www.w3.org/2000/svg" xmlns:xlink="http://www.w3.org/1999/xlink">
	<desc>
			Created with Pixso.
	</desc>
	<defs/>
	<circle id="Ellipse 278" cx="16.000000" cy="16.000000" r="16.000000" fill="#282D36" fill-opacity="1.000000"/>
	<circle id="Ellipse 278" cx="16.000000" cy="16.000000" r="15.500000" stroke="#E9E9E9" stroke-opacity="0" stroke-width="1.000000"/>
	<path id="Vector" d="M16.7188 20.98C11.2549 20.98 8.1377 17.2338 8.00781 11L10.7451 11C10.835 15.5754 12.8525 17.5135 14.4512 17.9131L14.4512 11L17.0293 11L17.0293 14.946C18.6074 14.7762 20.2656 12.978 20.8252 11L23.4023 11C22.9727 13.4376 21.1748 15.2358 19.8955 15.975C21.1748 16.5744 23.2227 18.1428 24.002 20.98L21.1641 20.98C20.5547 19.0819 19.0371 17.6134 17.0293 17.4136L17.0293 20.98L16.7188 20.98Z" fill="#858892" fill-opacity="1.000000" fill-rule="evenodd"/>
</svg>
